<?xml version="1.0" encoding="UTF-8"?>
<svg height="16px" viewBox="0 0 16 16" width="16px" xmlns="http://www.w3.org/2000/svg" xmlns:xlink="http://www.w3.org/1999/xlink">
    <clipPath id="a">
        <path d="m 0.378906 4 h 14.621094 v 7 h -14.621094 z m 0 0"/>
    </clipPath>
    <g clip-path="url(#a)">
        <path d="m 13.863281 6.054688 s -0.003906 0.003906 -0.003906 0.007812 c -0.003906 0.003906 -0.007813 0.011719 -0.015625 0.019531 c -0.003906 0.003907 -0.011719 0.015625 -0.019531 0.023438 c -0.011719 0.007812 -0.023438 0.011719 -0.035157 0.015625 c -0.015624 0 -0.027343 0 -0.046874 -0.003906 c -0.015626 -0.007813 -0.03125 -0.015626 -0.050782 -0.023438 c -0.015625 -0.007812 -0.035156 -0.019531 -0.050781 -0.03125 c -0.019531 -0.011719 -0.039063 -0.019531 -0.058594 -0.03125 s -0.039062 -0.019531 -0.058593 -0.03125 c -0.019532 -0.007812 -0.039063 -0.015625 -0.058594 -0.023438 c -0.039063 -0.015624 -0.078125 -0.023437 -0.113282 -0.027343 c -0.015624 -0.003907 -0.03125 -0.003907 -0.046874 -0.003907 c -0.011719 0 -0.023438 0 -0.035157 0 c -0.019531 0.003907 -0.027343 0.003907 -0.027343 0.003907 s 0.007812 0.003906 0.027343 0.003906 c 0.011719 0.003906 0.023438 0.007813 0.035157 0.007813 c 0.011718 0.003906 0.027343 0.007812 0.042968 0.011718 c 0.03125 0.011719 0.0625 0.023438 0.101563 0.039063 c 0.015625 0.007812 0.035156 0.019531 0.054687 0.027343 c 0.019532 0.011719 0.039063 0.019532 0.054688 0.03125 c 0.039062 0.019532 0.078125 0.042969 0.117187 0.058594 c 0.019531 0.007813 0.039063 0.015625 0.058594 0.019532 c 0.007813 0 0.011719 0 0.015625 0.003906 c -0.027344 0.011718 -0.054688 0.027344 -0.234375 0.097656 c 0.128906 0.039062 0.199219 0.058594 0.234375 0.0625 c -0.019531 -0.007812 -0.039062 -0.039062 -0.039062 -0.074219 c 0 -0.039062 0.023437 -0.070312 0.046874 -0.074219 v -0.011718 c 0.011719 0 0.027344 -0.003906 0.039063 -0.007813 c 0.015625 -0.003906 0.03125 -0.015625 0.039063 -0.027343 c 0.007812 -0.011719 0.015624 -0.023438 0.019531 -0.03125 c 0.003906 -0.011719 0.003906 -0.019532 0.003906 -0.023438 c 0.003906 -0.003906 0.003906 -0.007812 0.003906 -0.007812 m -1.109375 -0.648438 c -0.078125 -0.027344 -0.132812 0.015625 -0.160156 0.0625 c 0.070312 0.074219 0.117188 0.15625 0.183594 0.203125 c 0.078125 -0.09375 0.074218 -0.226563 -0.023438 -0.265625 m -0.058594 0.570312 s -0.015624 0 -0.039062 0.003907 c -0.011719 0 -0.027344 0 -0.046875 0.003906 c -0.007813 0 -0.015625 0 -0.027344 0 c -0.007812 0 -0.019531 0 -0.027343 -0.003906 c -0.023438 0 -0.046876 -0.003907 -0.070313 -0.007813 c -0.007813 -0.003906 -0.023437 -0.007812 -0.035156 -0.011718 c -0.003907 -0.003907 -0.011719 -0.003907 -0.015625 -0.007813 c -0.007813 0 -0.011719 -0.003906 -0.019532 -0.007813 c -0.011718 -0.003906 -0.023437 -0.011718 -0.03125 -0.019531 c -0.011718 -0.007812 -0.023437 -0.011719 -0.035156 -0.023437 c -0.019531 -0.015625 -0.039062 -0.039063 -0.054687 -0.058594 c -0.015625 -0.023438 -0.027344 -0.050781 -0.035157 -0.074219 c -0.011718 -0.027343 -0.015624 -0.050781 -0.019531 -0.078125 c -0.003906 -0.027344 -0.007812 -0.050781 -0.003906 -0.074218 c 0 -0.023438 0.003906 -0.046876 0.007813 -0.066407 c 0.007812 -0.023437 0.015624 -0.039062 0.019531 -0.054687 c 0.007812 -0.015625 0.015625 -0.027344 0.023437 -0.039063 c 0.007813 -0.007812 0.015625 -0.015625 0.019532 -0.023437 c 0.003906 -0.003906 0.007812 -0.003906 0.007812 -0.003906 s -0.003906 0 -0.007812 0.003906 c -0.007813 0.003906 -0.011719 0.011718 -0.023438 0.019531 c -0.007812 0.011719 -0.015625 0.023437 -0.027344 0.039063 c -0.007812 0.015624 -0.015625 0.03125 -0.023437 0.054687 c -0.003907 0.019531 -0.011719 0.042969 -0.011719 0.066406 c -0.003906 0.027344 -0.003906 0.054688 0 0.082031 c 0.003906 0.054688 0.023438 0.109376 0.058594 0.160157 c 0.015625 0.023437 0.035156 0.046875 0.058594 0.0625 c 0.019531 0.019531 0.046874 0.035156 0.070312 0.046875 c 0.011719 0.003906 0.027344 0.011718 0.039062 0.011718 c 0.011719 0.007813 0.023438 0.007813 0.039063 0.011719 c 0.023437 0.003907 0.046875 0.003907 0.070313 0.007813 c 0.019531 0 0.039062 -0.003906 0.058593 -0.003906 c 0.015625 -0.003907 0.03125 -0.003907 0.042969 -0.007813 c 0.023438 -0.003906 0.039062 -0.007813 0.039062 -0.007813 m -0.144531 1.617188 c -0.003906 -0.019531 -0.003906 -0.042969 -0.007812 -0.0625 c -0.003907 -0.019531 -0.003907 -0.039062 -0.007813 -0.058594 c -0.003906 -0.019531 -0.007812 -0.035156 -0.011718 -0.050781 c -0.007813 -0.035156 -0.019532 -0.0625 -0.027344 -0.082031 c -0.019532 -0.046875 -0.027344 -0.070313 -0.027344 -0.070313 s 0.003906 0.027344 0.015625 0.074219 c 0.003906 0.023438 0.007813 0.050781 0.011719 0.082031 c 0.003906 0.015625 0.003906 0.03125 0.007812 0.050781 v 0.058594 v 0.058594 c 0 0.023438 -0.003906 0.042969 -0.003906 0.066406 c -0.007812 0.042969 -0.015625 0.089844 -0.03125 0.136719 c -0.003906 0.023437 -0.011719 0.046875 -0.019531 0.074219 c -0.011719 0.023437 -0.019531 0.046875 -0.027344 0.070312 c -0.019531 0.046875 -0.042969 0.09375 -0.070313 0.140625 c -0.023437 0.046875 -0.050781 0.09375 -0.074218 0.140625 c -0.027344 0.046875 -0.050782 0.09375 -0.074219 0.136719 c -0.023437 0.046875 -0.042969 0.09375 -0.058594 0.136719 c -0.007812 0.023437 -0.015625 0.046875 -0.023437 0.066406 c -0.003906 0.023438 -0.007813 0.042969 -0.011719 0.0625 c 0 0.011719 -0.003906 0.023438 -0.003906 0.03125 c 0 0.011719 -0.003907 0.019531 -0.003907 0.03125 v 0.050781 c 0.003907 0.035157 0.007813 0.066407 0.015626 0.085938 c 0.003906 0.023437 0.011718 0.042969 0.015624 0.054687 c 0.003907 0.011719 0.007813 0.019532 0.007813 0.019532 s -0.003906 -0.007813 -0.003906 -0.019532 c -0.003907 -0.015625 -0.007813 -0.03125 -0.007813 -0.054687 c 0 -0.011719 0 -0.023438 0 -0.039063 s 0 -0.027344 0 -0.042968 c 0.003906 -0.019532 0.003906 -0.035157 0.007813 -0.050782 c 0 -0.011718 0.003906 -0.019531 0.003906 -0.027344 c 0.003906 -0.011718 0.003906 -0.019531 0.007813 -0.027343 c 0.007812 -0.039063 0.023437 -0.078125 0.042968 -0.121094 c 0.019532 -0.039063 0.039063 -0.082031 0.066406 -0.125 c 0.023438 -0.042969 0.050782 -0.089844 0.074219 -0.136719 c 0.027344 -0.042968 0.054688 -0.089844 0.082031 -0.140625 c 0.023438 -0.046875 0.046876 -0.097656 0.066407 -0.148437 c 0.023437 -0.050782 0.035156 -0.101563 0.046875 -0.152344 c 0.015625 -0.050781 0.019531 -0.101562 0.023437 -0.148438 c 0 -0.023437 0 -0.046874 0 -0.070312 m -3.5 -1.035156 s -0.007812 -0.007813 -0.027343 -0.027344 c -0.015626 -0.019531 -0.039063 -0.046875 -0.074219 -0.078125 c -0.019531 -0.019531 -0.039063 -0.039063 -0.058594 -0.058594 c -0.023437 -0.019531 -0.046875 -0.039062 -0.070313 -0.0625 c -0.023437 -0.023437 -0.050781 -0.042969 -0.082031 -0.070312 c -0.027343 -0.023438 -0.0625 -0.046875 -0.09375 -0.070313 c -0.03125 -0.023437 -0.070312 -0.050781 -0.105469 -0.074218 c -0.019531 -0.011719 -0.039062 -0.023438 -0.058593 -0.035157 c -0.019531 -0.015625 -0.039063 -0.027343 -0.058594 -0.039062 c -0.082031 -0.046875 -0.175781 -0.09375 -0.269531 -0.132813 c -0.097656 -0.039062 -0.203125 -0.070312 -0.3125 -0.09375 c -0.105469 -0.019531 -0.222656 -0.027344 -0.335938 -0.019531 c -0.113281 0.007813 -0.226562 0.035156 -0.328125 0.082031 c -0.105469 0.042969 -0.195312 0.109375 -0.273437 0.183594 c -0.039063 0.035156 -0.074219 0.074219 -0.105469 0.113281 c -0.015625 0.019531 -0.03125 0.042969 -0.046875 0.0625 c -0.011719 0.019531 -0.027344 0.039063 -0.039062 0.058594 c -0.023438 0.042969 -0.050782 0.082031 -0.070313 0.121094 c -0.019531 0.042969 -0.039063 0.082031 -0.050781 0.121093 c -0.007813 0.019532 -0.015625 0.039063 -0.023438 0.054688 c -0.003906 0.011719 -0.007812 0.019531 -0.011718 0.027344 c -0.003907 0.011718 -0.003907 0.019531 -0.007813 0.027344 c -0.011719 0.039062 -0.023437 0.070312 -0.03125 0.105468 c -0.015625 0.0625 -0.03125 0.121094 -0.039063 0.167969 c -0.011718 0.046875 -0.015624 0.085937 -0.019531 0.109375 c -0.003906 0.027344 -0.007812 0.039062 -0.007812 0.039062 s 0.003906 -0.011718 0.011719 -0.039062 c 0.007812 -0.023438 0.019531 -0.058594 0.03125 -0.105469 c 0.015624 -0.046875 0.035156 -0.101562 0.054687 -0.164062 c 0.027344 -0.058594 0.054687 -0.128907 0.089844 -0.203125 c 0.015625 -0.035156 0.039062 -0.070313 0.058593 -0.109375 c 0.019532 -0.039063 0.046876 -0.074219 0.070313 -0.113281 c 0.011719 -0.019532 0.027344 -0.039063 0.042969 -0.054688 c 0.015625 -0.019531 0.027344 -0.039062 0.046875 -0.058594 c 0.015625 -0.015625 0.03125 -0.035156 0.046875 -0.050781 c 0.015625 -0.019531 0.035156 -0.035156 0.054687 -0.050781 c 0.074219 -0.066406 0.160157 -0.121094 0.253907 -0.160156 c 0.09375 -0.042969 0.195312 -0.066407 0.300781 -0.074219 c 0.105469 -0.007813 0.210937 -0.003907 0.3125 0.019531 c 0.105469 0.015625 0.203125 0.042969 0.296875 0.078125 c 0.09375 0.039063 0.183594 0.074219 0.265625 0.121094 c 0.042969 0.019531 0.082031 0.042969 0.121093 0.0625 c 0.035157 0.023437 0.074219 0.042969 0.105469 0.066406 c 0.070313 0.042969 0.132813 0.085937 0.1875 0.125 c 0.023438 0.019531 0.050781 0.039063 0.074219 0.054687 c 0.019531 0.019532 0.042969 0.035157 0.058594 0.050782 c 0.039062 0.027344 0.066406 0.054687 0.085937 0.070312 c 0.023438 0.015625 0.03125 0.023438 0.03125 0.023438 m -2.878906 -0.058594 c -0.011719 -0.039062 -0.03125 -0.074219 -0.058594 -0.105469 c -0.039062 -0.023437 -0.078125 -0.046875 -0.117187 -0.070312 c 0.011718 0.03125 0.015625 0.070312 0.015625 0.109375 c 0 0.195312 -0.144531 0.355468 -0.328125 0.378906 c 0.050781 0.050781 0.125 0.082031 0.203125 0.082031 c 0.046875 0 0.09375 -0.011719 0.132812 -0.03125 c 0.039063 -0.121093 0.089844 -0.242187 0.152344 -0.363281 m -0.542969 0.226562 c 0.160156 0 0.292969 -0.132812 0.292969 -0.292968 c 0 -0.125 -0.074219 -0.226563 -0.175781 -0.273438 c 0.003906 0.027344 0.007812 0.054688 0.007812 0.082032 c 0 0.199218 -0.15625 0.363281 -0.351562 0.375 c 0.054687 0.066406 0.136718 0.109374 0.226562 0.109374 m -0.246094 -0.203124 c 0.152344 0 0.28125 -0.125 0.28125 -0.28125 c 0 -0.117188 -0.070312 -0.214844 -0.167968 -0.261719 c 0.003906 0.015625 0.003906 0.03125 0.003906 0.046875 c 0 0.199218 -0.15625 0.363281 -0.355469 0.367187 c 0.050781 0.078125 0.136719 0.128907 0.238281 0.128907 m -0.242187 -0.222657 c 0.148437 0 0.269531 -0.121093 0.269531 -0.273437 c 0 -0.109375 -0.066406 -0.207032 -0.160156 -0.25 v 0.027344 c 0 0.195312 -0.15625 0.351562 -0.347656 0.355468 c 0.046875 0.085938 0.136718 0.140625 0.238281 0.140625 m -0.242187 -0.230469 c 0.144531 0 0.261718 -0.121093 0.261718 -0.265624 c 0 -0.109376 -0.066406 -0.203126 -0.160156 -0.242188 c 0 0.003906 0.003906 0.011719 0.003906 0.019531 c 0 0.1875 -0.152344 0.339844 -0.335937 0.34375 c 0.042969 0.085938 0.132812 0.144531 0.230469 0.144531 m -0.238282 -0.234374 c 0.136719 0 0.25 -0.113282 0.25 -0.253907 c 0 -0.109375 -0.066406 -0.199219 -0.160156 -0.238281 c 0 0.007812 0.003906 0.015625 0.003906 0.027344 c 0 0.175781 -0.140625 0.320312 -0.3125 0.332031 c 0.042969 0.078125 0.125 0.132813 0.21875 0.132813 m 0 -0.464844 c 0 -0.109375 -0.070312 -0.199219 -0.164062 -0.234375 c 0 0.015625 0.003906 0.027343 0.003906 0.042969 c 0 0.164062 -0.125 0.300781 -0.28125 0.320312 c 0.042969 0.066406 0.117188 0.113281 0.203125 0.113281 c 0.132813 0 0.238281 -0.109375 0.238281 -0.242187 m -0.484375 0.039062 c 0.128907 0 0.230469 -0.101562 0.230469 -0.230468 c 0 -0.109376 -0.074219 -0.203126 -0.175781 -0.226563 c 0.007812 0.019531 0.007812 0.042969 0.007812 0.066406 c 0 0.148438 -0.101562 0.273438 -0.238281 0.304688 c 0.042969 0.054687 0.105469 0.085937 0.175781 0.085937 m -0.027343 -0.390625 c 0 -0.113281 -0.085938 -0.207031 -0.195313 -0.21875 c 0.011719 0.03125 0.019531 0.066407 0.019531 0.105469 c 0 0.128906 -0.078125 0.234375 -0.1875 0.28125 c 0.035156 0.035156 0.085938 0.054688 0.144532 0.054688 c 0.121093 0 0.21875 -0.097657 0.21875 -0.222657 m -0.269532 -0.113281 c 0 -0.117188 -0.09375 -0.210938 -0.207031 -0.210938 c -0.007813 0 -0.011719 0 -0.019531 0 c 0.027344 0.042969 0.042968 0.09375 0.042968 0.148438 c 0 0.101562 -0.050781 0.191406 -0.128906 0.246094 c 0.03125 0.015625 0.066406 0.027344 0.105469 0.027344 c 0.113281 0 0.207031 -0.09375 0.207031 -0.210938 m -0.277344 -0.0625 c 0 -0.089844 -0.058593 -0.164062 -0.136718 -0.191406 c -0.035156 -0.003906 -0.074219 -0.003906 -0.113282 -0.003906 c -0.007812 0.003906 -0.015624 0.007812 -0.019531 0.007812 c 0.042969 0.050781 0.074219 0.117188 0.074219 0.191406 c 0 0.070313 -0.027344 0.136719 -0.070312 0.1875 c 0.019531 0.007813 0.042968 0.011719 0.066406 0.011719 c 0.113281 0 0.199218 -0.089844 0.199218 -0.203125 m -0.289062 0.003906 c 0 -0.089844 -0.058594 -0.164062 -0.140625 -0.183594 c -0.054687 0.007813 -0.101563 0.015626 -0.152344 0.023438 c -0.007812 0.007812 -0.019531 0.015625 -0.027343 0.023438 c 0.066406 0.050781 0.109374 0.128906 0.109374 0.21875 c 0 0.035156 -0.007812 0.070312 -0.023437 0.105468 c 0.015625 0.003906 0.03125 0.003906 0.046875 0.003906 c 0.105469 0 0.1875 -0.085937 0.1875 -0.191406 m -0.304688 0.082032 c 0 -0.101563 -0.078124 -0.183594 -0.175781 -0.183594 c -0.015625 0 -0.027343 0.003906 -0.042969 0.007812 c -0.011718 0.003906 -0.027343 0.007813 -0.039062 0.011719 c -0.042969 0.023437 -0.074219 0.0625 -0.089844 0.109375 c 0.070313 0.046875 0.117188 0.125 0.117188 0.21875 v 0.007812 c 0.015625 0.003907 0.035156 0.007813 0.054687 0.007813 c 0.097657 0 0.175781 -0.082031 0.175781 -0.179687 m -0.320312 0.164062 c 0 -0.09375 -0.074219 -0.171875 -0.167969 -0.171875 c -0.085937 0 -0.15625 0.066406 -0.167969 0.148437 c 0.085938 0.027344 0.152344 0.101563 0.171876 0.195313 c 0.089843 -0.003906 0.164062 -0.078125 0.164062 -0.171875 m -0.253906 0.214844 c 0 -0.085938 -0.070313 -0.160156 -0.15625 -0.160156 c -0.046875 0 -0.085938 0.019531 -0.117188 0.050781 c -0.007812 0.015625 -0.015625 0.027343 -0.023437 0.039062 c -0.011719 0.023438 -0.019531 0.046875 -0.019531 0.070313 c 0 0.007812 0 0.011718 0.003906 0.015625 c 0.007812 0 0.015625 -0.003907 0.027344 -0.003907 c 0.089843 0 0.167968 0.054688 0.210937 0.128907 c 0.042969 -0.027344 0.074219 -0.082031 0.074219 -0.140625 m -0.1875 1.019531 c -0.066406 0 -0.117188 0.054687 -0.117188 0.121094 c 0 0.066406 0.050782 0.117187 0.117188 0.117187 s 0.117187 -0.050781 0.117187 -0.117187 c 0 -0.066407 -0.050781 -0.121094 -0.117187 -0.121094 m 0.035156 0.417969 c 0.015625 0.027344 0.03125 0.054687 0.050781 0.078125 c 0.007813 0.011719 0.011719 0.019531 0.019531 0.027343 c 0.011719 0.003907 0.023438 0.007813 0.035157 0.007813 c 0.058593 0 0.109375 -0.050781 0.109375 -0.109375 s -0.050782 -0.109375 -0.109375 -0.109375 c -0.058594 0 -0.105469 0.046875 -0.105469 0.105469 m 0.183594 0.265625 c 0.027344 0.042969 0.058594 0.085937 0.085937 0.128906 h 0.007813 c 0.050781 0 0.097656 -0.042969 0.097656 -0.097656 c 0 -0.054688 -0.046875 -0.097657 -0.097656 -0.097657 c -0.046875 0 -0.082032 0.027344 -0.09375 0.066407 m 0.179687 0.273437 c 0.027344 0.039063 0.046875 0.078125 0.070313 0.117188 c 0.003906 0 0.007812 0.003906 0.011718 0.003906 c 0.050782 0 0.089844 -0.042969 0.089844 -0.089844 s -0.039062 -0.089844 -0.089844 -0.089844 c -0.035156 0 -0.066406 0.027344 -0.082031 0.058594 m 0.15625 0.28125 c 0.011719 0.023438 0.019531 0.050782 0.03125 0.078125 c 0.011719 0.007813 0.027344 0.011719 0.042969 0.011719 c 0.042969 0 0.078125 -0.035156 0.078125 -0.078125 s -0.035156 -0.078125 -0.078125 -0.078125 c -0.039062 0 -0.070312 0.027344 -0.074219 0.066406 m 0.171875 0.203125 c -0.035156 0 -0.066406 0.03125 -0.066406 0.070313 c 0 0.035156 0.03125 0.066406 0.066406 0.066406 c 0.039063 0 0.070313 -0.03125 0.070313 -0.066406 c 0 -0.039063 -0.03125 -0.070313 -0.070313 -0.070313 m 0.03125 0.28125 c -0.03125 0 -0.054687 0.027344 -0.054687 0.058594 s 0.023437 0.054687 0.054687 0.054687 s 0.058594 -0.023437 0.058594 -0.054687 s -0.027344 -0.058594 -0.058594 -0.058594 m 0.003906 0.304688 c 0 -0.027344 -0.019531 -0.046875 -0.042968 -0.046875 c -0.019532 0 -0.03125 0.007812 -0.039063 0.019531 c -0.003906 0.011719 -0.007812 0.023437 -0.007812 0.03125 c 0.003906 0.023437 0.023437 0.039063 0.046875 0.039063 c 0.023437 0 0.042968 -0.019532 0.042968 -0.042969 m -0.113281 0.207031 c 0 -0.019531 -0.015625 -0.035156 -0.035156 -0.035156 c -0.007813 0.019531 -0.019531 0.039062 -0.027344 0.058594 c 0.003907 0.007812 0.015625 0.015624 0.027344 0.015624 c 0.019531 0 0.035156 -0.019531 0.035156 -0.039062 m -0.121093 0.144531 c 0 -0.003906 -0.003907 -0.011719 -0.007813 -0.019531 c -0.011719 0.019531 -0.023437 0.039062 -0.039063 0.054688 c 0.003907 0.003906 0.007813 0.003906 0.011719 0.003906 c 0.019531 0 0.035157 -0.015625 0.035157 -0.039063 m -0.476563 -3.144531 c 0 -0.082031 -0.066406 -0.148438 -0.148437 -0.148438 c -0.0625 0 -0.113282 0.035157 -0.136719 0.085938 c -0.003907 0.015625 -0.007813 0.03125 -0.011719 0.046875 v 0.015625 c 0 0.027344 0.003906 0.050781 0.015625 0.070312 c 0.027344 -0.011718 0.0625 -0.019531 0.09375 -0.019531 c 0.054687 0 0.105469 0.019531 0.144531 0.050781 c 0.027344 -0.023437 0.042969 -0.0625 0.042969 -0.101562 m -0.164063 0.707031 c 0.03125 -0.015625 0.066407 -0.027343 0.101563 -0.03125 c 0.027344 -0.023437 0.042969 -0.058593 0.042969 -0.09375 c 0 -0.074219 -0.058594 -0.132812 -0.128906 -0.132812 c -0.070313 0 -0.128907 0.058593 -0.128907 0.132812 c 0 0.066407 0.050781 0.121094 0.113281 0.125 m -0.105468 -0.3125 c 0.035156 -0.023437 0.078125 -0.035156 0.121094 -0.035156 c 0.023437 0 0.046874 0.003906 0.066406 0.011719 c 0.019531 -0.023438 0.03125 -0.054688 0.03125 -0.089844 c 0 -0.078125 -0.058594 -0.140625 -0.136719 -0.140625 c -0.074219 0 -0.136719 0.0625 -0.136719 0.140625 c 0 0.046875 0.023438 0.089844 0.054688 0.113281 m 12.957031 0.324219 c -0.085937 0.214844 -0.398437 0.496094 -0.507813 0.480469 c -0.039062 0.058593 -0.113281 0.164062 -0.125 0.167969 c 0.019532 -0.105469 0.03125 -0.226563 0.023438 -0.300782 c -0.105469 -0.066406 -0.269531 -0.082031 -0.300781 0.097656 c -0.03125 0.160157 0.054687 0.25 0.128906 0.300782 c 0.027344 -0.019532 0.066406 -0.058594 0.101563 -0.125 c 0.007812 0 -0.003907 0.128906 -0.007813 0.167968 c 0.007813 0.003907 0.011719 0.003907 0.011719 0.003907 s 0.046875 0.027343 -0.09375 0.054687 c -0.089844 0.015625 -0.242188 0 -0.570313 0.0625 c -0.273437 0.152344 -0.550781 0.066406 -0.828125 -0.117187 c 0.007813 0.148437 0.351563 0.28125 0.351563 0.28125 c -0.128907 0.027343 -0.246094 0.09375 -0.347657 0.191406 c -0.15625 0.25 -0.34375 0.640625 -0.132812 0.832031 c -0.097656 -0.007812 -0.167969 -0.0625 -0.214844 -0.136718 c -0.015625 0.484374 0.101563 0.878906 0.257813 1.050781 c 0.089843 0.101562 0.402343 0.398437 0.507812 0.507812 c 0.144531 0.148438 0.457031 -0.078125 0.53125 -0.019531 c 0.058594 0.050781 0.304688 0.078125 0.332031 0.117188 c -0.042968 -0.015626 -0.371093 -0.085938 -0.480468 -0.03125 c 0.011718 0.003906 0.050781 0.011718 0.101562 0.019531 c 0.042969 0.011719 0.128906 -0.011719 0.167969 0.003906 c 0.023437 0.007813 0.039063 0.035156 0.101563 0.050781 c 0.117187 0.027344 0.238281 0.070313 0.265624 0.109375 c -0.023437 -0.027343 -0.453124 -0.117187 -0.578124 -0.085937 c 0.011718 0 0.046874 0.011718 0.09375 0.03125 c 0.035156 0 0.0625 -0.003906 0.085937 0.007812 c 0.003906 0.003906 0.011719 0.027344 0.039063 0.050782 c 0.015624 0.007812 0.03125 0.015624 0.042968 0.027343 c 0.03125 0.019531 0.054688 0.042969 0.054688 0.0625 c -0.0625 -0.078125 -0.429688 -0.125 -0.40625 -0.109375 c 0.007812 0.003906 0.015625 0.007813 0.027344 0.015625 c 0.015624 0.007813 0.046874 0.039063 0.082031 0.050781 c 0.015625 0.011719 0.019531 0.03125 0.019531 0.042969 c 0.019531 0.023438 0.042969 0.066407 0.035156 0.082031 c -0.011718 -0.019531 -0.039062 -0.058593 -0.050781 -0.074218 c -0.011719 -0.003906 -0.023437 -0.011719 -0.035156 -0.023438 c -0.105469 -0.070312 -0.257813 -0.039062 -0.347657 -0.058594 c -0.113281 -0.019531 -0.105468 -0.078124 -0.207031 -0.1875 c -0.484375 -0.535156 -1.085937 -0.289062 -1.222656 -0.539062 c 0.023437 -0.207031 -0.671875 -0.632812 -1.21875 -0.996094 c -0.335937 -0.226562 -0.320313 -0.515625 -0.109375 -0.761718 c -0.082031 0.050781 -0.167969 0.101562 -0.210938 0.136718 c -0.199218 0.328125 -0.03125 0.605469 0.636719 0.933594 h 0.007813 l 0.273437 0.148438 c -0.0625 0.160156 -0.589843 0.234374 -0.652343 0.261718 s 0.1875 0.402344 0.1875 0.402344 s 0.285156 -0.027344 0.390624 -0.074219 c 0.066407 0.027344 0.253907 0.035157 0.316407 0.101563 c -0.132813 -0.058594 -0.277344 -0.035156 -0.386719 -0.003906 c 0.21875 0.011718 0.507812 0.042968 0.707031 0.136718 c -0.1875 -0.039062 -0.378906 -0.054687 -0.554687 -0.054687 c 0.171875 0.03125 0.375 0.085937 0.511718 0.15625 c -0.191406 -0.046875 -0.386718 -0.078125 -0.5625 -0.09375 c 0.1875 0.074219 0.429688 0.167969 0.441407 0.21875 c -0.128907 -0.066407 -0.273438 -0.109375 -0.441407 -0.140625 c -0.214843 -0.023438 -0.625 -0.027344 -0.691406 -0.066406 c -0.082031 -0.050782 0 -0.097657 -0.007812 -0.25 c -0.003906 -0.148438 -0.253906 -0.277344 -0.222656 -0.277344 c 0.019531 0 0.136718 -0.09375 0.222656 -0.21875 c -0.269532 0.121094 -0.574219 0.234375 -0.878906 0.308594 c -0.011719 -0.003907 -0.054688 -0.015626 -0.117188 -0.027344 c -0.039062 -0.011719 -0.085938 -0.023438 -0.140625 -0.035156 c -0.027344 -0.007813 -0.058594 -0.015626 -0.085937 -0.023438 c -0.03125 -0.011719 -0.0625 -0.019531 -0.097657 -0.027344 c -0.03125 -0.011718 -0.066406 -0.023437 -0.101562 -0.035156 c -0.035157 -0.011719 -0.070313 -0.023438 -0.109375 -0.035156 c -0.035156 -0.015625 -0.074219 -0.027344 -0.109375 -0.042969 c -0.039063 -0.019531 -0.078125 -0.03125 -0.117188 -0.050781 c -0.078125 -0.035156 -0.15625 -0.078125 -0.230469 -0.121094 c -0.078124 -0.046875 -0.152343 -0.097656 -0.222656 -0.152344 c -0.070312 -0.058594 -0.136718 -0.117187 -0.195312 -0.183594 c -0.058594 -0.066406 -0.113282 -0.132812 -0.15625 -0.207031 c -0.046875 -0.070312 -0.085938 -0.140625 -0.117188 -0.214843 c -0.03125 -0.070313 -0.058594 -0.136719 -0.082031 -0.203126 c -0.042969 -0.128906 -0.066406 -0.242187 -0.082031 -0.320312 c -0.011719 -0.039062 -0.015625 -0.070312 -0.019532 -0.09375 c -0.003906 -0.019531 -0.007812 -0.03125 -0.007812 -0.03125 s 0 0.011719 0.003906 0.03125 c 0 0.023438 0 0.054688 0.003906 0.09375 c 0.003907 0.042969 0.007813 0.089844 0.015626 0.148438 c 0.003906 0.027343 0.011718 0.054687 0.015624 0.085937 c 0.007813 0.03125 0.011719 0.066406 0.019532 0.101563 c 0.019531 0.066406 0.039062 0.140624 0.070312 0.214843 c 0.019532 0.054688 0.042969 0.105469 0.070313 0.160157 c -0.207031 0.316406 -0.636719 0.609374 -1.34375 0.710937 c 0 0.003906 -0.003907 0.003906 -0.003907 0.003906 c -0.019531 0 -0.039062 0.003907 -0.0625 0.007813 c -0.410156 0.050781 -0.769531 0.023437 -0.882812 0.007812 c -0.179688 -0.019531 -0.464844 0.394532 -0.015625 0.5625 c 0.101563 0.039063 0.230469 0.082032 0.363281 0.117188 c 0.027344 0.003906 0.054688 0.003906 0.082032 0.003906 c 0.050781 -0.007812 0.128906 -0.019531 0.167968 -0.042969 c 0.027344 0.019531 0.082032 0.035157 0.121094 0.042969 c 0.171875 0.003906 0.304688 0.011719 0.394531 0.046875 c -0.109375 -0.019531 -0.34375 0 -0.515625 0.019531 c 0.03125 0.007813 0.0625 0.015625 0.09375 0.023438 c 0.039063 0.003906 0.078125 0.003906 0.109375 -0.007813 c 0.03125 0.023438 0.105469 0.054688 0.167969 0.078125 c 0.1875 0.042969 0.316406 0.074219 0.316406 0.074219 s -0.191406 0 -0.78125 -0.09375 c 0.011719 0.007813 0.042969 0.03125 0.078125 0.0625 c 0.027344 0.011719 0.0625 0.023437 0.101563 0.027344 c 0.007812 0.027343 0.019531 0.054687 0.03125 0.082031 c 0.058594 0.054688 0.109375 0.113281 0.136718 0.167969 c -0.34375 -0.261719 -0.570312 -0.316407 -0.582031 -0.320313 c 0.003907 0.003906 0.019531 0.019532 0.039063 0.035156 c 0.019531 0.019532 0.046875 0.035157 0.085937 0.058594 c 0 0.015625 0.003907 0.039063 0.007813 0.058594 c 0.03125 0.054688 0.050781 0.113281 0.027344 0.167969 c 0.007812 -0.359375 -1.234376 -0.234375 -0.925782 -0.488281 c 0.308594 -0.253907 -0.175781 -0.4375 0.023438 -0.875 c 0.902344 -0.007813 0.851562 -0.773438 0.769531 -1.269532 c -0.128906 0.042969 -0.242187 0.0625 -0.324219 0.046875 c 0.148438 -0.054687 0.300782 -0.269531 0.421875 -0.488281 c -0.035156 -0.019531 -0.070312 -0.046875 -0.097656 -0.074219 c -0.125 -0.011719 -0.234375 -0.078125 -0.296875 -0.175781 c -0.121094 -0.023438 -0.21875 -0.101562 -0.273438 -0.207031 c -0.117187 -0.03125 -0.210937 -0.117188 -0.253906 -0.226563 c -0.109375 -0.035156 -0.199218 -0.121094 -0.238281 -0.234375 c -0.109375 -0.035156 -0.195313 -0.121093 -0.230469 -0.230469 c -0.109375 -0.035156 -0.191406 -0.117187 -0.226562 -0.222656 c -0.101563 -0.023437 -0.183594 -0.097656 -0.226563 -0.195312 c -0.09375 -0.019532 -0.171875 -0.078125 -0.21875 -0.164063 c -0.085937 -0.007812 -0.164062 -0.054687 -0.214843 -0.125 c -0.003907 0.003907 -0.003907 0.003907 -0.007813 0.003907 c -0.078125 0 -0.148437 -0.03125 -0.203125 -0.082032 c -0.019531 0.007813 -0.042969 0.007813 -0.066406 0.007813 c -0.050782 0 -0.101563 -0.011719 -0.144532 -0.039063 c -0.039062 0.023438 -0.085937 0.035156 -0.132812 0.035156 c -0.035156 0 -0.066406 -0.007812 -0.097656 -0.019531 c -0.050782 0.054688 -0.121094 0.085938 -0.195313 0.085938 c -0.027343 0 -0.050781 -0.003907 -0.070312 -0.007813 c -0.039063 0.09375 -0.132813 0.164063 -0.238281 0.164063 c -0.015626 0.082031 -0.066407 0.148437 -0.136719 0.179687 v 0.027344 c 0 0.070312 -0.027344 0.128906 -0.074219 0.175781 c 0.015625 0.03125 0.027344 0.066407 0.027344 0.105469 c 0 0.050781 -0.015625 0.097656 -0.042969 0.136719 c 0.042969 0.039062 0.070313 0.097656 0.070313 0.164062 c 0 0.039063 -0.011719 0.078125 -0.03125 0.113281 c 0.070312 0.035157 0.121093 0.105469 0.121093 0.191407 c 0 0.039062 -0.011719 0.074219 -0.03125 0.105469 c 0.09375 0.019531 0.160157 0.097656 0.160157 0.195312 c 0 0.039062 -0.007813 0.074219 -0.027344 0.101562 c 0.101562 0 0.1875 0.085938 0.1875 0.191407 c 0 0.035156 -0.011719 0.066406 -0.027344 0.09375 h 0.007812 c 0.101563 0 0.179688 0.082031 0.179688 0.179687 c 0 0.035156 -0.007812 0.066406 -0.027344 0.09375 c 0.089844 0.003906 0.164063 0.078125 0.164063 0.167969 c 0 0.039063 -0.015625 0.074219 -0.035157 0.105469 c 0.070313 0.015625 0.125 0.078125 0.125 0.15625 c 0 0.054687 -0.027343 0.101562 -0.074218 0.132812 c 0.054687 0.019532 0.09375 0.074219 0.09375 0.136719 c 0 0.066406 -0.039063 0.121094 -0.097656 0.140625 c 0.027343 0.023438 0.046874 0.0625 0.046874 0.105469 c 0 0.074219 -0.0625 0.136719 -0.136718 0.136719 c 0.011718 0.019531 0.019531 0.042968 0.019531 0.070312 c 0 0.070312 -0.054687 0.125 -0.121094 0.128906 v 0.015625 c 0 0.050781 -0.027343 0.09375 -0.070312 0.117188 l 0.003906 0.003906 s -0.011719 0.011719 -0.035156 0.039063 c -0.023438 0.03125 -0.058594 0.066406 -0.109375 0.113281 c -0.050782 0.046875 -0.113282 0.101562 -0.195313 0.152343 c -0.082031 0.050782 -0.183593 0.097657 -0.296875 0.128907 c -0.113281 0.03125 -0.238281 0.046875 -0.375 0.035156 c -0.132812 -0.007813 -0.269531 -0.039063 -0.402344 -0.097656 c -0.128906 -0.0625 -0.253906 -0.148438 -0.355468 -0.257813 c -0.027344 -0.027344 -0.050782 -0.058594 -0.074219 -0.089844 c -0.011719 -0.015624 -0.019531 -0.03125 -0.03125 -0.046874 l -0.003906 -0.003907 v -0.003906 l -0.003907 -0.003906 l -0.007812 -0.011719 l -0.011719 -0.023438 c -0.039062 -0.066406 -0.070312 -0.136718 -0.089843 -0.210937 c -0.039063 -0.148437 -0.042969 -0.304687 -0.003907 -0.449219 c 0.039063 -0.144531 0.121094 -0.277344 0.230469 -0.367187 c 0.054688 -0.046875 0.113281 -0.082031 0.175781 -0.109375 c 0.015625 -0.007813 0.03125 -0.011719 0.046875 -0.015625 c 0.015625 -0.007813 0.035156 -0.011719 0.050782 -0.015625 h 0.011718 l 0.011719 -0.003906 l 0.023437 -0.003907 c 0.015626 -0.003906 0.03125 -0.003906 0.046876 -0.007812 c 0.128906 -0.011719 0.246093 0.007812 0.351562 0.046875 c 0.101562 0.039062 0.1875 0.09375 0.25 0.15625 c 0.0625 0.058594 0.105469 0.125 0.132812 0.183594 c 0.023438 0.058593 0.03125 0.105468 0.03125 0.140624 v 0.039063 c -0.003906 0.007813 -0.003906 0.011719 -0.003906 0.011719 s 0 -0.003906 0 -0.011719 c 0.003906 -0.011719 0.003906 -0.023437 0 -0.039063 c 0 -0.035156 -0.011718 -0.082031 -0.039062 -0.136718 c -0.027344 -0.054688 -0.070313 -0.117188 -0.136719 -0.171875 c -0.066406 -0.054688 -0.148437 -0.105469 -0.25 -0.136719 c -0.097656 -0.03125 -0.210937 -0.042969 -0.328125 -0.023438 c -0.015625 0.003907 -0.027344 0.003907 -0.042969 0.007813 l -0.023437 0.007813 h -0.011719 l -0.007813 0.003906 c -0.015624 0.003906 -0.03125 0.007812 -0.042968 0.015625 c -0.015625 0.003906 -0.027344 0.011719 -0.042969 0.015625 c -0.054687 0.027344 -0.105469 0.0625 -0.148437 0.105468 c -0.09375 0.085938 -0.15625 0.203126 -0.183594 0.332032 c -0.03125 0.128906 -0.019532 0.261718 0.023437 0.386718 c 0.019531 0.0625 0.050781 0.125 0.085938 0.175782 l 0.011719 0.023437 l 0.007812 0.011719 l 0.003906 0.003906 v 0.003906 c 0 -0.003906 0 0 0 -0.003906 l 0.003906 0.003906 c 0.007813 0.015626 0.019532 0.027344 0.027344 0.039063 c 0.023438 0.023437 0.042969 0.050781 0.066406 0.070313 c 0.09375 0.089843 0.203126 0.160156 0.316407 0.203124 c 0.117187 0.042969 0.234375 0.066407 0.34375 0.066407 c 0.113281 0 0.21875 -0.019531 0.308593 -0.046875 c 0.089844 -0.03125 0.167969 -0.074219 0.230469 -0.117188 c 0.0625 -0.042968 0.113281 -0.089844 0.152344 -0.132812 c 0.003906 0 0.003906 -0.003906 0.007813 -0.003906 c 0.601562 -0.679688 0.105468 -1.371094 -0.277344 -1.917969 c -0.109375 -0.160157 -0.160156 -0.300781 -0.21875 -0.417969 c -0.144532 -0.304688 -0.171875 -0.652344 -0.082032 -0.964844 c 0.003907 -0.003906 0.003907 -0.007812 0.003907 -0.011718 c 0.023437 -0.078126 0.054687 -0.152344 0.09375 -0.222657 c 0.011719 -0.023437 0.027343 -0.050781 0.046875 -0.082031 c 0.007812 -0.011719 0.015625 -0.023438 0.023437 -0.035156 c 0.167969 -0.246094 0.484375 -0.523438 1.082031 -0.601563 c 0.800782 -0.105469 1.382813 0.425781 1.984376 0.976563 c 0.378906 0.347656 0.660156 0.578125 1.136718 0.789062 c 0.101563 -0.15625 0.226563 -0.308594 0.378906 -0.457031 c 1.164063 -1.140625 2.109376 0.273437 3.230469 0.863281 c 0.09375 0.046875 0.191407 0.105469 0.300781 0.15625 c -0.109374 -0.097656 -0.203124 -0.214844 -0.257812 -0.351562 c 0.339844 0.1875 0.710938 0.179687 1.074219 0.097656 c -0.105469 -0.046875 -0.207031 -0.125 -0.304688 -0.246094 c 0.726563 0.28125 0.9375 -0.25 1.527344 -0.28125 c 0.085937 0.082032 0.25 0.097656 0.4375 0.023438 c -0.570313 0.132812 -0.722656 -0.511719 -0.449219 -0.808594 c 0.175782 0.003906 0.28125 0.066406 0.355469 0.140625 c 0.023437 -0.074219 0.070313 -0.175781 0.152344 -0.210937 c 0.191406 0.019531 0.128906 0.296874 0.3125 0.449218 c 0.28125 -0.015625 0.65625 0.078125 0.78125 0.074219 c 0.070312 0.261719 0.972656 0.542969 1.160156 0.515625 m -7.132813 3.046875 c 0.074219 0.089844 0.199219 0.167969 0.421876 0.269531 l 0.441406 0.058594 c 0.09375 -0.015625 0.1875 -0.039062 0.261718 -0.054688 c 0.09375 0.019532 0.238282 0.007813 0.308594 0.070313 c -0.109375 -0.050781 -0.269531 -0.023437 -0.394531 0.011719 c 0.054687 0.003906 0.132813 0.007812 0.183594 0 c 0.050781 0.035156 0.210937 0.058594 0.253906 0.097656 c -0.308594 -0.074219 -0.488281 -0.035156 -0.488281 -0.035156 s 0.234375 0.050781 0.230468 0.128906 c -0.042968 -0.058594 -0.300781 -0.097656 -0.304687 -0.046875 c 0 0 0.121094 0.027344 0.140625 0.078125 c -0.285156 -0.125 -0.597656 0.117188 -0.691406 -0.140625 c -0.101563 -0.285156 -1.371094 -0.519531 -1.097656 -0.71875 c 0.183593 -0.097656 0.742187 -0.414063 0.84375 -0.675781 c 0.035156 0.066406 0.078124 0.128906 0.125 0.191406 c 0.050781 0.058594 0.105468 0.117188 0.164062 0.171875 c 0.058594 0.050781 0.125 0.097656 0.1875 0.136719 c 0.019531 0.011718 0.035156 0.023437 0.050781 0.03125 c 0.015625 0.011718 0.035157 0.019531 0.050781 0.027344 c 0.03125 0.019531 0.066407 0.035156 0.097657 0.050781 c 0.035156 0.015625 0.066406 0.03125 0.101562 0.042969 c 0.03125 0.015624 0.0625 0.027343 0.09375 0.039062 c 0.035157 0.007812 0.0625 0.019531 0.09375 0.027344 c 0.03125 0.011718 0.058594 0.019531 0.089844 0.027344 c 0.054687 0.011718 0.105469 0.023437 0.152344 0.035156 c 0.046875 0.007812 0.085937 0.015625 0.121093 0.019531 c 0.050782 0.007813 0.082032 0.011719 0.097657 0.015625 c -0.304688 0.058594 -0.605469 0.070312 -0.839844 -0.007812 c -0.425781 -0.136719 -0.679687 -0.007813 -0.695313 0.148437" fill="#110f0d"/>
    </g>
    <path d="m 8.949219 6.453125 c -0.019531 -0.019531 -0.039063 -0.039063 -0.058594 -0.058594 c -0.023437 -0.019531 -0.046875 -0.039062 -0.070313 -0.0625 c -0.023437 -0.023437 -0.050781 -0.042969 -0.082031 -0.070312 c -0.027343 -0.023438 -0.0625 -0.046875 -0.09375 -0.070313 c -0.03125 -0.023437 -0.070312 -0.050781 -0.105469 -0.074218 c -0.019531 -0.011719 -0.039062 -0.023438 -0.058593 -0.035157 c -0.019531 -0.015625 -0.039063 -0.027343 -0.058594 -0.039062 c -0.082031 -0.046875 -0.175781 -0.09375 -0.269531 -0.132813 c -0.097656 -0.039062 -0.203125 -0.070312 -0.3125 -0.09375 c -0.105469 -0.019531 -0.222656 -0.027344 -0.335938 -0.019531 c -0.113281 0.007813 -0.226562 0.035156 -0.328125 0.082031 c -0.105469 0.042969 -0.195312 0.109375 -0.273437 0.183594 c -0.039063 0.035156 -0.074219 0.074219 -0.105469 0.113281 c -0.015625 0.019531 -0.03125 0.042969 -0.046875 0.0625 c -0.011719 0.019531 -0.027344 0.039063 -0.039062 0.058594 c -0.023438 0.042969 -0.050782 0.082031 -0.070313 0.121094 c -0.019531 0.042969 -0.039063 0.082031 -0.050781 0.121093 c -0.007813 0.019532 -0.015625 0.039063 -0.023438 0.054688 c -0.003906 0.011719 -0.007812 0.019531 -0.011718 0.027344 c -0.003907 0.011718 -0.003907 0.019531 -0.007813 0.027344 c -0.011719 0.039062 -0.023437 0.070312 -0.03125 0.105468 c -0.015625 0.0625 -0.03125 0.121094 -0.039063 0.167969 c -0.011718 0.046875 -0.015624 0.085937 -0.019531 0.109375 c -0.003906 0.027344 -0.007812 0.039062 -0.007812 0.039062 s 0.003906 -0.011718 0.011719 -0.039062 c 0.007812 -0.023438 0.019531 -0.058594 0.03125 -0.105469 c 0.015624 -0.046875 0.035156 -0.101562 0.054687 -0.164062 c 0.027344 -0.058594 0.054687 -0.128907 0.089844 -0.203125 c 0.015625 -0.035156 0.039062 -0.070313 0.058593 -0.109375 c 0.019532 -0.039063 0.046876 -0.074219 0.070313 -0.113281 c 0.011719 -0.019532 0.027344 -0.039063 0.042969 -0.054688 c 0.015625 -0.019531 0.027344 -0.039062 0.046875 -0.058594 c 0.015625 -0.015625 0.03125 -0.035156 0.046875 -0.050781 c 0.015625 -0.019531 0.035156 -0.035156 0.054687 -0.050781 c 0.074219 -0.066406 0.160157 -0.121094 0.253907 -0.160156 c 0.09375 -0.042969 0.195312 -0.066407 0.300781 -0.074219 c 0.105469 -0.007813 0.210937 -0.003907 0.3125 0.019531 c 0.105469 0.015625 0.203125 0.042969 0.296875 0.078125 c 0.09375 0.039063 0.183594 0.074219 0.265625 0.121094 c 0.042969 0.019531 0.082031 0.042969 0.121093 0.0625 c 0.035157 0.023437 0.074219 0.042969 0.105469 0.066406 c 0.070313 0.042969 0.132813 0.085937 0.1875 0.125 c 0.023438 0.019531 0.050781 0.039063 0.074219 0.054687 c 0.019531 0.019532 0.042969 0.035157 0.058594 0.050782 c 0.039062 0.027344 0.066406 0.054687 0.085937 0.070312 c 0.023438 0.015625 0.03125 0.023438 0.03125 0.023438 s -0.007812 -0.007813 -0.027343 -0.027344 c -0.015626 -0.019531 -0.039063 -0.046875 -0.074219 -0.078125 m 3.660156 -0.46875 c -0.007813 0 -0.015625 0 -0.027344 0 c -0.007812 0 -0.019531 0 -0.027343 -0.003906 c -0.023438 0 -0.046876 -0.003907 -0.070313 -0.007813 c -0.007813 -0.003906 -0.023437 -0.007812 -0.035156 -0.011718 c -0.003907 -0.003907 -0.011719 -0.003907 -0.015625 -0.007813 c -0.007813 0 -0.011719 -0.003906 -0.019532 -0.007813 c -0.011718 -0.003906 -0.023437 -0.011718 -0.03125 -0.019531 c -0.011718 -0.007812 -0.023437 -0.011719 -0.035156 -0.023437 c -0.019531 -0.015625 -0.039062 -0.039063 -0.054687 -0.058594 c -0.015625 -0.023438 -0.027344 -0.050781 -0.035157 -0.074219 c -0.011718 -0.027343 -0.015624 -0.050781 -0.019531 -0.078125 c -0.003906 -0.027344 -0.007812 -0.050781 -0.003906 -0.074218 c 0 -0.023438 0.003906 -0.046876 0.007813 -0.066407 c 0.007812 -0.023437 0.015624 -0.039062 0.019531 -0.054687 c 0.007812 -0.015625 0.015625 -0.027344 0.023437 -0.039063 c 0.007813 -0.007812 0.015625 -0.015625 0.019532 -0.023437 c 0.003906 -0.003906 0.007812 -0.003906 0.007812 -0.003906 s -0.003906 0 -0.007812 0.003906 c -0.007813 0.003906 -0.011719 0.011718 -0.023438 0.019531 c -0.007812 0.011719 -0.015625 0.023437 -0.027344 0.039063 c -0.007812 0.015624 -0.015625 0.03125 -0.023437 0.054687 c -0.003907 0.019531 -0.011719 0.042969 -0.011719 0.066406 c -0.003906 0.027344 -0.003906 0.054688 0 0.082031 c 0.003906 0.054688 0.023438 0.109376 0.058594 0.160157 c 0.015625 0.023437 0.035156 0.046875 0.058594 0.0625 c 0.019531 0.019531 0.046874 0.035156 0.070312 0.046875 c 0.011719 0.003906 0.027344 0.011718 0.039062 0.011718 c 0.011719 0.007813 0.023438 0.007813 0.039063 0.011719 c 0.023437 0.003907 0.046875 0.003907 0.070313 0.007813 c 0.019531 0 0.039062 -0.003906 0.058593 -0.003906 c 0.015625 -0.003907 0.03125 -0.003907 0.042969 -0.007813 c 0.023438 -0.003906 0.039062 -0.007813 0.039062 -0.007813 s -0.015624 0 -0.039062 0.003907 c -0.011719 0 -0.027344 0 -0.046875 0.003906 m 1.234375 0.097656 c -0.003906 0.003907 -0.011719 0.015625 -0.019531 0.023438 c -0.011719 0.007812 -0.023438 0.011719 -0.035157 0.015625 c -0.015624 0 -0.027343 0 -0.046874 -0.003906 c -0.015626 -0.007813 -0.03125 -0.015626 -0.050782 -0.023438 c -0.015625 -0.007812 -0.035156 -0.019531 -0.050781 -0.03125 c -0.019531 -0.007812 -0.039063 -0.019531 -0.058594 -0.03125 s -0.039062 -0.019531 -0.058593 -0.03125 c -0.019532 -0.007812 -0.039063 -0.015625 -0.058594 -0.023438 c -0.039063 -0.015624 -0.078125 -0.023437 -0.113282 -0.027343 c -0.015624 -0.003907 -0.03125 -0.003907 -0.046874 -0.003907 c -0.011719 0 -0.023438 0 -0.035157 0 c -0.019531 0.003907 -0.027343 0.003907 -0.027343 0.003907 s 0.007812 0.003906 0.027343 0.003906 c 0.011719 0.003906 0.023438 0.007813 0.035157 0.007813 c 0.011718 0.003906 0.027343 0.007812 0.042968 0.011718 c 0.03125 0.011719 0.0625 0.023438 0.101563 0.039063 c 0.015625 0.007812 0.035156 0.019531 0.054687 0.027343 c 0.019532 0.011719 0.039063 0.019532 0.054688 0.03125 c 0.039062 0.019532 0.078125 0.042969 0.117187 0.058594 c 0.019531 0.007813 0.039063 0.015625 0.058594 0.019532 c 0.007813 0 0.011719 0 0.015625 0.003906 c -0.027344 0.011718 -0.054688 0.027344 -0.234375 0.097656 c 0.128906 0.039062 0.199219 0.058594 0.234375 0.0625 c -0.019531 -0.007812 -0.039062 -0.039062 -0.039062 -0.074219 c 0 -0.039062 0.023437 -0.070312 0.046874 -0.074219 v -0.011718 c 0.011719 0 0.027344 -0.003906 0.039063 -0.007813 c 0.015625 -0.003906 0.03125 -0.015625 0.039063 -0.027343 c 0.007812 -0.011719 0.015624 -0.023438 0.019531 -0.03125 c 0.003906 -0.011719 0.003906 -0.019532 0.003906 -0.023438 c 0.003906 -0.003906 0.003906 -0.007812 0.003906 -0.007812 s -0.003906 0.003906 -0.003906 0.007812 c -0.003906 0.003906 -0.007813 0.011719 -0.015625 0.019531 m -1.300781 1.449219 c -0.003907 -0.019531 -0.003907 -0.039062 -0.007813 -0.058594 c -0.003906 -0.019531 -0.007812 -0.035156 -0.011718 -0.050781 c -0.007813 -0.035156 -0.019532 -0.0625 -0.027344 -0.082031 c -0.019532 -0.046875 -0.027344 -0.070313 -0.027344 -0.070313 s 0.003906 0.027344 0.015625 0.074219 c 0.003906 0.023438 0.007813 0.050781 0.011719 0.082031 c 0.003906 0.015625 0.003906 0.03125 0.007812 0.050781 v 0.058594 v 0.058594 c 0 0.023438 -0.003906 0.042969 -0.003906 0.066406 c -0.007812 0.042969 -0.015625 0.089844 -0.03125 0.136719 c -0.003906 0.023437 -0.011719 0.046875 -0.019531 0.074219 c -0.011719 0.023437 -0.019531 0.046875 -0.027344 0.070312 c -0.019531 0.046875 -0.042969 0.09375 -0.070313 0.140625 c -0.023437 0.046875 -0.050781 0.09375 -0.074218 0.140625 c -0.027344 0.046875 -0.050782 0.09375 -0.074219 0.136719 c -0.023437 0.046875 -0.042969 0.09375 -0.058594 0.136719 c -0.007812 0.023437 -0.015625 0.046875 -0.023437 0.066406 c -0.003906 0.023438 -0.007813 0.042969 -0.011719 0.0625 c 0 0.011719 -0.003906 0.023438 -0.003906 0.03125 c 0 0.011719 -0.003907 0.019531 -0.003907 0.03125 v 0.050781 c 0.003907 0.035157 0.007813 0.066407 0.015626 0.085938 c 0.003906 0.023437 0.011718 0.042969 0.015624 0.054687 c 0.003907 0.011719 0.007813 0.019532 0.007813 0.019532 s -0.003906 -0.007813 -0.003906 -0.019532 c -0.003907 -0.015625 -0.007813 -0.03125 -0.007813 -0.054687 c 0 -0.011719 0 -0.023438 0 -0.039063 s 0 -0.027344 0 -0.042968 c 0.003906 -0.019532 0.003906 -0.035157 0.007813 -0.050782 c 0 -0.011718 0.003906 -0.019531 0.003906 -0.027344 c 0.003906 -0.011718 0.003906 -0.019531 0.007813 -0.027343 c 0.007812 -0.039063 0.023437 -0.078125 0.042968 -0.121094 c 0.019532 -0.039063 0.039063 -0.082031 0.066406 -0.125 c 0.023438 -0.042969 0.050782 -0.089844 0.074219 -0.136719 c 0.027344 -0.042968 0.054688 -0.089844 0.082031 -0.140625 c 0.023438 -0.046875 0.046876 -0.097656 0.066407 -0.148437 c 0.023437 -0.050782 0.035156 -0.101563 0.046875 -0.152344 c 0.015625 -0.050781 0.019531 -0.101562 0.023437 -0.148438 c 0 -0.023437 0 -0.046874 0 -0.070312 c -0.003906 -0.019531 -0.003906 -0.042969 -0.007812 -0.0625 m -9.683594 0.996094 c -0.023437 0 -0.039063 0.015625 -0.039063 0.035156 s 0.015626 0.039062 0.039063 0.039062 c 0.019531 0 0.035156 -0.019531 0.035156 -0.039062 s -0.015625 -0.035156 -0.035156 -0.035156 m -0.121094 0.144531 c -0.019531 0 -0.039062 0.015625 -0.039062 0.035156 c 0 0.023438 0.019531 0.039063 0.039062 0.039063 s 0.035157 -0.015625 0.035157 -0.039063 c 0 -0.019531 -0.015626 -0.035156 -0.035157 -0.035156 m 0.226563 -0.363281 c -0.027344 0 -0.046875 0.019531 -0.046875 0.046875 c 0 0.023437 0.019531 0.042969 0.046875 0.042969 c 0.023437 0 0.042968 -0.019532 0.042968 -0.042969 c 0 -0.027344 -0.019531 -0.046875 -0.042968 -0.046875 m -0.015625 -0.199219 c 0 0.03125 0.023437 0.054687 0.054687 0.054687 s 0.058594 -0.023437 0.058594 -0.054687 s -0.027344 -0.058594 -0.058594 -0.058594 s -0.054687 0.027344 -0.054687 0.058594 m -0.042969 -0.269531 c 0 0.035156 0.03125 0.066406 0.066406 0.066406 c 0.039063 0 0.070313 -0.03125 0.070313 -0.066406 c 0 -0.039063 -0.03125 -0.070313 -0.070313 -0.070313 c -0.035156 0 -0.066406 0.03125 -0.066406 0.070313 m -0.109375 -0.261719 c 0 0.042969 0.035156 0.078125 0.078125 0.078125 s 0.078125 -0.035156 0.078125 -0.078125 s -0.035156 -0.078125 -0.078125 -0.078125 s -0.078125 0.035156 -0.078125 0.078125 m -0.070313 -0.171875 c 0.050782 0 0.089844 -0.042969 0.089844 -0.089844 s -0.039062 -0.089844 -0.089844 -0.089844 c -0.046874 0 -0.085937 0.042969 -0.085937 0.089844 s 0.039063 0.089844 0.085937 0.089844 m -0.265624 -0.363281 c 0 0.054687 0.042968 0.097656 0.097656 0.097656 c 0.050781 0 0.097656 -0.042969 0.097656 -0.097656 c 0 -0.054688 -0.046875 -0.097657 -0.097656 -0.097657 c -0.054688 0 -0.097656 0.042969 -0.097656 0.097657 m -0.179688 -0.292969 c 0 0.058594 0.046875 0.109375 0.105469 0.109375 c 0.058593 0 0.109375 -0.050781 0.109375 -0.109375 s -0.050782 -0.109375 -0.109375 -0.109375 c -0.058594 0 -0.105469 0.050781 -0.105469 0.109375 m -0.152344 -0.300781 c 0 0.066406 0.050782 0.117187 0.117188 0.117187 s 0.117187 -0.050781 0.117187 -0.117187 c 0 -0.066407 -0.050781 -0.121094 -0.117187 -0.121094 s -0.117188 0.054687 -0.117188 0.121094 m 0.148438 -0.304688 c 0 -0.074219 -0.058594 -0.132812 -0.128906 -0.132812 c -0.070313 0 -0.128907 0.058593 -0.128907 0.132812 c 0 0.066407 0.050781 0.121094 0.113281 0.125 c 0.03125 -0.015625 0.066407 -0.027343 0.101563 -0.03125 c 0.027344 -0.023437 0.042969 -0.058593 0.042969 -0.09375 m -0.0625 -0.210937 c 0.019531 -0.023438 0.03125 -0.054688 0.03125 -0.089844 c 0 -0.078125 -0.058594 -0.140625 -0.136719 -0.140625 c -0.074219 0 -0.136719 0.0625 -0.136719 0.140625 c 0 0.046875 0.023438 0.089844 0.054688 0.113281 c 0.035156 -0.023437 0.078125 -0.035156 0.121094 -0.035156 c 0.023437 0 0.046874 0.003906 0.066406 0.011719 m 0.039062 -0.269532 c 0.027344 -0.023437 0.042969 -0.0625 0.042969 -0.101562 c 0 -0.082031 -0.066406 -0.148438 -0.148437 -0.148438 c -0.082032 0 -0.148438 0.066407 -0.148438 0.148438 c 0 0.027344 0.003906 0.050781 0.015625 0.070312 c 0.027344 -0.011718 0.0625 -0.019531 0.09375 -0.019531 c 0.054687 0 0.105469 0.019531 0.144531 0.050781 m 0.105469 -0.214843 c 0.042969 -0.027344 0.074219 -0.082031 0.074219 -0.140625 c 0 -0.085938 -0.070313 -0.160156 -0.15625 -0.160156 c -0.085938 0 -0.160156 0.074218 -0.160156 0.160156 c 0 0.007812 0 0.011718 0.003906 0.015625 c 0.007812 0 0.015625 -0.003907 0.027344 -0.003907 c 0.089843 0 0.167968 0.054688 0.210937 0.128907 m 0.164063 -0.183594 c 0.089843 -0.003906 0.164062 -0.078125 0.164062 -0.171875 s -0.074219 -0.171875 -0.167969 -0.171875 c -0.085937 0 -0.15625 0.066406 -0.167969 0.148437 c 0.085938 0.027344 0.152344 0.101563 0.171876 0.195313 m 0.253906 -0.171875 v 0.007812 c 0.015625 0.003907 0.035156 0.007813 0.054687 0.007813 c 0.097657 0 0.175781 -0.082031 0.175781 -0.179687 c 0 -0.101563 -0.078124 -0.183594 -0.175781 -0.183594 c -0.082031 0 -0.148437 0.054687 -0.171875 0.128906 c 0.070313 0.046875 0.117188 0.125 0.117188 0.21875 m 0.324218 -0.164062 c 0 0.035156 -0.007812 0.070312 -0.023437 0.105468 c 0.015625 0.003906 0.03125 0.003906 0.046875 0.003906 c 0.105469 0 0.1875 -0.085937 0.1875 -0.191406 c 0 -0.105468 -0.082031 -0.191406 -0.1875 -0.191406 c -0.050781 0 -0.097656 0.023438 -0.132812 0.054688 c 0.066406 0.050781 0.109374 0.128906 0.109374 0.21875 m 0.234376 0.105468 c 0.019531 0.007813 0.042968 0.011719 0.066406 0.011719 c 0.113281 0 0.199218 -0.089844 0.199218 -0.203125 c 0 -0.109375 -0.085937 -0.199219 -0.199218 -0.199219 c -0.023438 0 -0.050782 0.003907 -0.070313 0.011719 c 0.042969 0.050781 0.074219 0.117188 0.074219 0.191406 c 0 0.070313 -0.027344 0.136719 -0.070312 0.1875 m 0.230468 0.054688 c 0.03125 0.015625 0.066406 0.027344 0.105469 0.027344 c 0.113281 0 0.207031 -0.09375 0.207031 -0.210938 s -0.09375 -0.210938 -0.207031 -0.210938 c -0.007813 0 -0.011719 0 -0.019531 0 c 0.027344 0.042969 0.042968 0.09375 0.042968 0.148438 c 0 0.101562 -0.050781 0.191406 -0.128906 0.246094 m 0.21875 0.097656 c 0.035156 0.035156 0.085938 0.054688 0.144532 0.054688 c 0.121093 0 0.21875 -0.097657 0.21875 -0.222657 c 0 -0.113281 -0.085938 -0.207031 -0.195313 -0.21875 c 0.011719 0.03125 0.019531 0.066407 0.019531 0.105469 c 0 0.128906 -0.078125 0.234375 -0.1875 0.28125 m 0.214844 0.136719 c 0.042969 0.054687 0.105469 0.085937 0.175781 0.085937 c 0.128907 0 0.230469 -0.101562 0.230469 -0.230468 c 0 -0.109376 -0.074219 -0.203126 -0.175781 -0.226563 c 0.007812 0.019531 0.007812 0.042969 0.007812 0.066406 c 0 0.148438 -0.101562 0.273438 -0.238281 0.304688 m 0.21875 0.175781 c 0.042969 0.066406 0.117188 0.113281 0.203125 0.113281 c 0.132813 0 0.238281 -0.109375 0.238281 -0.242187 c 0 -0.109375 -0.070312 -0.199219 -0.164062 -0.234375 c 0 0.015625 0.003906 0.027343 0.003906 0.042969 c 0 0.164062 -0.125 0.300781 -0.28125 0.320312 m 0.222656 0.203125 c 0.042969 0.078125 0.125 0.132813 0.21875 0.132813 c 0.136719 0 0.25 -0.113282 0.25 -0.253907 c 0 -0.109375 -0.066406 -0.199219 -0.160156 -0.238281 c 0 0.007812 0.003906 0.015625 0.003906 0.027344 c 0 0.175781 -0.140625 0.320312 -0.3125 0.332031 m 0.226563 0.222656 c 0.042969 0.085938 0.132812 0.144531 0.230469 0.144531 c 0.144531 0 0.261718 -0.121093 0.261718 -0.265624 c 0 -0.109376 -0.066406 -0.203126 -0.160156 -0.242188 c 0 0.003906 0.003906 0.011719 0.003906 0.019531 c 0 0.1875 -0.152344 0.339844 -0.335937 0.34375 m 0.234375 0.234375 c 0.046875 0.085938 0.136718 0.140625 0.238281 0.140625 c 0.148437 0 0.269531 -0.121093 0.269531 -0.273437 c 0 -0.109375 -0.066406 -0.207032 -0.160156 -0.25 v 0.027344 c 0 0.195312 -0.15625 0.351562 -0.347656 0.355468 m 0.242187 0.234375 c 0.050781 0.078125 0.136719 0.128907 0.238281 0.128907 c 0.152344 0 0.28125 -0.125 0.28125 -0.28125 c 0 -0.117188 -0.070312 -0.214844 -0.167968 -0.261719 c 0.003906 0.015625 0.003906 0.03125 0.003906 0.046875 c 0 0.199218 -0.15625 0.363281 -0.355469 0.367187 m 0.257813 0.222657 c 0.054687 0.066406 0.136718 0.109374 0.226562 0.109374 c 0.160156 0 0.292969 -0.132812 0.292969 -0.292968 c 0 -0.125 -0.074219 -0.226563 -0.175781 -0.273438 c 0.003906 0.027344 0.007812 0.054688 0.007812 0.082032 c 0 0.199218 -0.15625 0.363281 -0.351562 0.375 m 0.589844 -0.3125 c 0.011718 0.039062 0.019531 0.082031 0.019531 0.128906 c 0 0.195312 -0.144531 0.355468 -0.328125 0.378906 c 0.050781 0.050781 0.125 0.082031 0.203125 0.082031 c 0.046875 0 0.09375 -0.011719 0.132812 -0.03125 c 0.132813 -0.09375 0.1875 -0.214843 0.152344 -0.363281 c -0.027344 -0.089844 -0.09375 -0.164062 -0.179687 -0.195312" fill="#ffffff"/>
</svg>
